<?xml version="1.0" encoding="UTF-8"?>
<svg width="660px" height="294px" viewBox="0 0 660 294" version="1.1" xmlns="http://www.w3.org/2000/svg" xmlns:xlink="http://www.w3.org/1999/xlink">
    <!-- Generator: Sketch 49.3 (51167) - http://www.bohemiancoding.com/sketch -->
    <title>my box</title>
    <desc>Created with Sketch.</desc>
    <defs>
        <path d="M5.88418203e-15,42 L50.7692308,0 L609.230769,0 L660,42 L660,282 L5.88418203e-15,282 L5.88418203e-15,42 Z" id="path-1"></path>
        <rect id="path-3" x="0" y="0" width="259" height="30"></rect>
    </defs>
    <g id="注册登录" stroke="none" stroke-width="1" fill="none" fill-rule="evenodd">
        <g id="个人中心" transform="translate(-45.000000, -169.000000)">
            <g id="我的盒子2-copy" transform="translate(45.000000, 169.000000)">
                <g id="my-box">
                    <g id="盒子" transform="translate(0.000000, 12.000000)">
                        <mask id="mask-2" fill="white">
                            <use xlink:href="#path-1"></use>
                        </mask>
                        <g id="Combined-Shape">
                            <use fill="#FFFFFF" fill-rule="evenodd" xlink:href="#path-1"></use>
                            <path stroke="#BEB38F" stroke-width="2" d="M1,42.470564 L1,281 L659,281 L659,42.470564 L608.870747,1 L51.1292532,1 L1,42.470564 Z"></path>
                        </g>
                        <rect id="Rectangle-2" fill="#BEB38F" mask="url(#mask-2)" x="0" y="43" width="660" height="2"></rect>
                        <path d="M73.2092308,186.04 L156.369231,186.04 L156.369231,200.04 L123.105231,200.04 L123.105231,286 L106.473231,286 L106.473231,200.04 L73.2092308,200.04 L73.2092308,186.04 Z M197.309538,186.04 L216.216,186.04 L255.024,286 L237.254769,286 L228.014769,260.94 L185.510769,260.94 L176.270769,286 L158.501538,286 L197.309538,186.04 Z M190.486154,247.5 L223.039385,247.5 L207.118154,203.68 L206.549538,203.68 L190.486154,247.5 Z M309.042462,184.08 C320.983385,184.08 330.934154,187.16 338.610462,193.32 C346.002462,199.2 350.409231,207.32 351.972923,217.4 L335.767385,217.4 C334.061538,210.82 330.934154,206.06 326.243077,202.98 C321.694154,199.9 315.865846,198.5 308.758154,198.5 C298.096615,198.5 290.136,202 284.734154,209.28 C279.758769,215.72 277.342154,224.68 277.342154,236.16 C277.342154,247.92 279.758769,257.02 284.592,263.32 C289.851692,270.04 298.096615,273.54 309.184615,273.54 C316.434462,273.54 322.404923,271.72 326.953846,268.36 C331.787077,264.58 335.198769,258.84 337.188923,251.28 L353.394462,251.28 C351.12,263.04 345.860308,272.14 337.473231,278.72 C329.654769,284.88 320.272615,287.96 309.326769,287.96 C292.410462,287.96 279.758769,282.64 271.513846,272.28 C264.264,263.32 260.710154,251.28 260.710154,236.16 C260.710154,221.32 264.406154,209.14 271.940308,199.9 C280.469538,189.26 292.836923,184.08 309.042462,184.08 Z M369.031385,186.04 L385.663385,186.04 L385.663385,248.34 C385.663385,257.02 387.653538,263.32 391.776,267.52 C395.756308,271.58 402.295385,273.68 411.251077,273.68 C420.064615,273.68 426.603692,271.58 430.726154,267.52 C434.706462,263.32 436.838769,257.02 436.838769,248.34 L436.838769,186.04 L453.470769,186.04 L453.470769,248.06 C453.470769,261.08 449.774769,271.02 442.382769,277.88 C434.990769,284.6 424.613538,287.96 411.251077,287.96 C397.746462,287.96 387.369231,284.6 380.261538,278.02 C372.727385,271.02 369.031385,261.08 369.031385,248.06 L369.031385,186.04 Z M509.195077,184.08 C521.136,184.08 530.518154,186.46 537.199385,191.36 C544.307077,196.54 548.429538,204.66 549.424615,215.58 L532.934769,215.58 C531.513231,209.42 528.812308,204.94 525.116308,202.28 C521.420308,199.48 515.734154,198.22 508.342154,198.22 C501.945231,198.22 497.112,199.06 493.700308,200.88 C489.435692,202.98 487.445538,206.48 487.445538,211.24 C487.445538,215.44 489.72,218.94 494.553231,221.46 C496.685538,222.58 502.513846,224.68 511.896,227.62 C525.684923,231.82 534.498462,235.18 538.478769,237.42 C547.292308,242.6 551.699077,249.74 551.699077,258.98 C551.699077,267.94 548.145231,275.08 541.037538,280.26 C533.929846,285.3 523.836923,287.96 510.900923,287.96 C498.391385,287.96 488.582769,285.58 481.617231,280.82 C473.088,274.94 468.396923,265.7 467.686154,252.96 L484.176,252.96 C485.313231,260.52 488.014154,265.98 492.420923,269.2 C496.401231,272 502.513846,273.54 510.900923,273.54 C518.292923,273.54 524.263385,272.28 528.528,269.9 C532.792615,267.38 535.067077,264.16 535.067077,259.96 C535.067077,254.64 531.797538,250.44 525.542769,247.36 C523.552615,246.38 517.013538,244.14 505.783385,240.78 C493.273846,236.86 485.455385,234.06 482.470154,232.38 C474.651692,227.76 470.813538,221.04 470.813538,212.22 C470.813538,203.4 474.509538,196.4 482.185846,191.36 C489.293538,186.46 498.249231,184.08 509.195077,184.08 Z M610.977231,184.08 C626.472,184.08 638.697231,188.98 647.652923,198.92 C656.182154,208.3 660.446769,220.76 660.446769,236.16 C660.446769,251.56 656.182154,263.88 647.652923,273.26 C638.697231,283.06 626.472,287.96 610.977231,287.96 C595.340308,287.96 583.115077,282.92 574.301538,273.12 C565.772308,263.6 561.649846,251.28 561.649846,236.16 C561.649846,220.9 565.772308,208.58 574.301538,199.06 C583.115077,188.98 595.340308,184.08 610.977231,184.08 Z M610.977231,198.5 C600.457846,198.5 592.355077,202 586.526769,209 C580.982769,215.72 578.281846,224.68 578.281846,236.16 C578.281846,247.5 580.982769,256.46 586.526769,263.18 C592.212923,270.04 600.457846,273.54 610.977231,273.54 C621.496615,273.54 629.599385,270.18 635.285538,263.6 C640.829538,257.02 643.672615,247.92 643.672615,236.16 C643.672615,224.4 640.829538,215.16 635.285538,208.44 C629.599385,201.72 621.496615,198.5 610.977231,198.5 Z" id="TACUSO" fill="#BEB38F" opacity="0.107016203" mask="url(#mask-2)"></path>
                    </g>
                    <g id="slogan" transform="translate(189.000000, 0.000000)">
                        <g id="Rectangle-14">
                            <use fill="#FFFFFF" fill-rule="evenodd" xlink:href="#path-3"></use>
                            <rect stroke="#FFFFFF" stroke-width="1" x="0.5" y="0.5" width="258" height="29"></rect>
                        </g>
                    </g>
                </g>
            </g>
        </g>
    </g>
</svg>